<mxfile host="app.diagrams.net" modified="2022-09-03T20:18:16.193Z" agent="5.0 (Macintosh; Intel Mac OS X 10_15_7) AppleWebKit/605.1.15 (KHTML, like Gecko) Version/15.6.1 Safari/605.1.15" etag="RjcqqP6kvf26BMqsiNjg" version="20.2.7" type="github">
  <diagram name="Page-1" id="5f0bae14-7c28-e335-631c-24af17079c00">
    <mxGraphModel dx="3260" dy="4320" grid="1" gridSize="10" guides="1" tooltips="1" connect="1" arrows="1" fold="1" page="1" pageScale="1" pageWidth="1100" pageHeight="850" background="none" math="0" shadow="0">
      <root>
        <mxCell id="0" />
        <mxCell id="1" parent="0" />
        <mxCell id="XbwiFN5R8YYii-ntVh8l-30" style="edgeStyle=orthogonalEdgeStyle;rounded=0;orthogonalLoop=1;jettySize=auto;html=1;entryX=0.481;entryY=-0.01;entryDx=0;entryDy=0;entryPerimeter=0;fontSize=48;" parent="1" source="XbwiFN5R8YYii-ntVh8l-1" target="XbwiFN5R8YYii-ntVh8l-3" edge="1">
          <mxGeometry relative="1" as="geometry" />
        </mxCell>
        <mxCell id="XbwiFN5R8YYii-ntVh8l-1" value="" style="rounded=1;whiteSpace=wrap;html=1;fillColor=#E6E6E6;" parent="1" vertex="1">
          <mxGeometry x="380" y="-1810" width="1110" height="410" as="geometry" />
        </mxCell>
        <mxCell id="XbwiFN5R8YYii-ntVh8l-2" value="&lt;font size=&quot;7&quot;&gt;Capa de Usuario&lt;/font&gt;" style="text;html=1;strokeColor=none;fillColor=none;align=center;verticalAlign=middle;whiteSpace=wrap;rounded=0;" parent="1" vertex="1">
          <mxGeometry x="694" y="-1800" width="511" height="85" as="geometry" />
        </mxCell>
        <mxCell id="XbwiFN5R8YYii-ntVh8l-31" style="edgeStyle=orthogonalEdgeStyle;rounded=0;orthogonalLoop=1;jettySize=auto;html=1;entryX=0.5;entryY=0;entryDx=0;entryDy=0;fontSize=48;" parent="1" source="XbwiFN5R8YYii-ntVh8l-3" target="XbwiFN5R8YYii-ntVh8l-19" edge="1">
          <mxGeometry relative="1" as="geometry" />
        </mxCell>
        <mxCell id="XbwiFN5R8YYii-ntVh8l-3" value="" style="rounded=1;whiteSpace=wrap;html=1;fillColor=#E6E6E6;" parent="1" vertex="1">
          <mxGeometry x="340" y="-1307.5" width="1240" height="440" as="geometry" />
        </mxCell>
        <mxCell id="XbwiFN5R8YYii-ntVh8l-4" value="&lt;font size=&quot;7&quot;&gt;Capa de Negocio&lt;/font&gt;" style="text;html=1;strokeColor=none;fillColor=none;align=center;verticalAlign=middle;whiteSpace=wrap;rounded=0;" parent="1" vertex="1">
          <mxGeometry x="732.5" y="-1290" width="511" height="85" as="geometry" />
        </mxCell>
        <mxCell id="XbwiFN5R8YYii-ntVh8l-5" value="«component»&lt;br&gt;&lt;b&gt;RecopiladorDatos&lt;/b&gt;" style="html=1;dropTarget=0;fillColor=#CCFFCC;" parent="1" vertex="1">
          <mxGeometry x="450" y="-1130" width="200" height="110" as="geometry" />
        </mxCell>
        <mxCell id="XbwiFN5R8YYii-ntVh8l-6" value="" style="shape=module;jettyWidth=8;jettyHeight=4;" parent="XbwiFN5R8YYii-ntVh8l-5" vertex="1">
          <mxGeometry x="1" width="20" height="20" relative="1" as="geometry">
            <mxPoint x="-27" y="7" as="offset" />
          </mxGeometry>
        </mxCell>
        <mxCell id="XbwiFN5R8YYii-ntVh8l-7" value="«component»&lt;br&gt;&lt;b&gt;Clientes&lt;/b&gt;" style="html=1;dropTarget=0;fillColor=#FFD966;" parent="1" vertex="1">
          <mxGeometry x="694" y="-1000" width="250" height="95" as="geometry" />
        </mxCell>
        <mxCell id="XbwiFN5R8YYii-ntVh8l-8" value="" style="shape=module;jettyWidth=8;jettyHeight=4;" parent="XbwiFN5R8YYii-ntVh8l-7" vertex="1">
          <mxGeometry x="1" width="20" height="20" relative="1" as="geometry">
            <mxPoint x="-27" y="7" as="offset" />
          </mxGeometry>
        </mxCell>
        <mxCell id="XbwiFN5R8YYii-ntVh8l-9" value="«component»&lt;br&gt;&lt;b&gt;Autenticación&lt;/b&gt;" style="html=1;dropTarget=0;fillColor=#FFD966;" parent="1" vertex="1">
          <mxGeometry x="1035.5" y="-1000" width="244.5" height="100" as="geometry" />
        </mxCell>
        <mxCell id="XbwiFN5R8YYii-ntVh8l-10" value="" style="shape=module;jettyWidth=8;jettyHeight=4;" parent="XbwiFN5R8YYii-ntVh8l-9" vertex="1">
          <mxGeometry x="1" width="20" height="20" relative="1" as="geometry">
            <mxPoint x="-27" y="7" as="offset" />
          </mxGeometry>
        </mxCell>
        <mxCell id="XbwiFN5R8YYii-ntVh8l-11" value="«component»&lt;br&gt;&lt;b&gt;GestorSeñalesMonitoreo&lt;br&gt;&lt;/b&gt;" style="html=1;dropTarget=0;fillColor=#CCFFCC;" parent="1" vertex="1">
          <mxGeometry x="680" y="-1120" width="207" height="100" as="geometry" />
        </mxCell>
        <mxCell id="XbwiFN5R8YYii-ntVh8l-12" value="" style="shape=module;jettyWidth=8;jettyHeight=4;" parent="XbwiFN5R8YYii-ntVh8l-11" vertex="1">
          <mxGeometry x="1" width="20" height="20" relative="1" as="geometry">
            <mxPoint x="-27" y="7" as="offset" />
          </mxGeometry>
        </mxCell>
        <mxCell id="XbwiFN5R8YYii-ntVh8l-13" value="«component»&lt;br&gt;&lt;b&gt;GestorDispositivos&lt;/b&gt;" style="html=1;dropTarget=0;fillColor=#CCFFCC;" parent="1" vertex="1">
          <mxGeometry x="918" y="-1120" width="180" height="90" as="geometry" />
        </mxCell>
        <mxCell id="XbwiFN5R8YYii-ntVh8l-14" value="" style="shape=module;jettyWidth=8;jettyHeight=4;" parent="XbwiFN5R8YYii-ntVh8l-13" vertex="1">
          <mxGeometry x="1" width="20" height="20" relative="1" as="geometry">
            <mxPoint x="-27" y="7" as="offset" />
          </mxGeometry>
        </mxCell>
        <mxCell id="XbwiFN5R8YYii-ntVh8l-15" value="«component»&lt;br&gt;&lt;b&gt;GestorUbicacion&lt;br&gt;&lt;/b&gt;" style="html=1;dropTarget=0;fillColor=#CCFFCC;" parent="1" vertex="1">
          <mxGeometry x="1131" y="-1120" width="180" height="90" as="geometry" />
        </mxCell>
        <mxCell id="XbwiFN5R8YYii-ntVh8l-16" value="" style="shape=module;jettyWidth=8;jettyHeight=4;" parent="XbwiFN5R8YYii-ntVh8l-15" vertex="1">
          <mxGeometry x="1" width="20" height="20" relative="1" as="geometry">
            <mxPoint x="-27" y="7" as="offset" />
          </mxGeometry>
        </mxCell>
        <mxCell id="XbwiFN5R8YYii-ntVh8l-17" value="«component»&lt;br&gt;&lt;b&gt;Notificacion&lt;/b&gt;" style="html=1;dropTarget=0;fillColor=#CCFFCC;" parent="1" vertex="1">
          <mxGeometry x="1347.5" y="-1130" width="180" height="90" as="geometry" />
        </mxCell>
        <mxCell id="XbwiFN5R8YYii-ntVh8l-18" value="" style="shape=module;jettyWidth=8;jettyHeight=4;" parent="XbwiFN5R8YYii-ntVh8l-17" vertex="1">
          <mxGeometry x="1" width="20" height="20" relative="1" as="geometry">
            <mxPoint x="-27" y="7" as="offset" />
          </mxGeometry>
        </mxCell>
        <mxCell id="XbwiFN5R8YYii-ntVh8l-19" value="" style="rounded=1;whiteSpace=wrap;html=1;fillColor=#E6E6E6;" parent="1" vertex="1">
          <mxGeometry x="340" y="-730" width="1240" height="440" as="geometry" />
        </mxCell>
        <mxCell id="XbwiFN5R8YYii-ntVh8l-21" value="&lt;font size=&quot;7&quot;&gt;Capa de Datos&lt;/font&gt;" style="text;html=1;strokeColor=none;fillColor=none;align=center;verticalAlign=middle;whiteSpace=wrap;rounded=0;" parent="1" vertex="1">
          <mxGeometry x="720" y="-720" width="511" height="85" as="geometry" />
        </mxCell>
        <mxCell id="XbwiFN5R8YYii-ntVh8l-22" value="«component»&lt;br&gt;&lt;b&gt;DatosHistoricos&lt;br&gt;&lt;/b&gt;" style="html=1;dropTarget=0;fillColor=#99CCFF;" parent="1" vertex="1">
          <mxGeometry x="650" y="-570" width="180" height="140" as="geometry" />
        </mxCell>
        <mxCell id="XbwiFN5R8YYii-ntVh8l-23" value="" style="shape=module;jettyWidth=8;jettyHeight=4;" parent="XbwiFN5R8YYii-ntVh8l-22" vertex="1">
          <mxGeometry x="1" width="20" height="20" relative="1" as="geometry">
            <mxPoint x="-27" y="7" as="offset" />
          </mxGeometry>
        </mxCell>
        <mxCell id="XbwiFN5R8YYii-ntVh8l-24" value="«component»&lt;br&gt;&lt;b&gt;MotorBusqueda&lt;/b&gt;" style="html=1;dropTarget=0;fillColor=#99CCFF;" parent="1" vertex="1">
          <mxGeometry x="900" y="-545" width="180" height="90" as="geometry" />
        </mxCell>
        <mxCell id="XbwiFN5R8YYii-ntVh8l-25" value="" style="shape=module;jettyWidth=8;jettyHeight=4;" parent="XbwiFN5R8YYii-ntVh8l-24" vertex="1">
          <mxGeometry x="1" width="20" height="20" relative="1" as="geometry">
            <mxPoint x="-27" y="7" as="offset" />
          </mxGeometry>
        </mxCell>
        <mxCell id="XbwiFN5R8YYii-ntVh8l-26" value="«component»&lt;br&gt;&lt;b&gt;GeneradorReporte&lt;/b&gt;" style="html=1;dropTarget=0;fillColor=#99CCFF;" parent="1" vertex="1">
          <mxGeometry x="1142.5" y="-545" width="180" height="90" as="geometry" />
        </mxCell>
        <mxCell id="XbwiFN5R8YYii-ntVh8l-27" value="" style="shape=module;jettyWidth=8;jettyHeight=4;" parent="XbwiFN5R8YYii-ntVh8l-26" vertex="1">
          <mxGeometry x="1" width="20" height="20" relative="1" as="geometry">
            <mxPoint x="-27" y="7" as="offset" />
          </mxGeometry>
        </mxCell>
        <mxCell id="bXWaN2UdD33ZRCCEUEcj-1" value="«component»&lt;br&gt;&lt;b&gt;InterfazMovilABC&lt;/b&gt;" style="html=1;dropTarget=0;" vertex="1" parent="1">
          <mxGeometry x="567" y="-1630" width="320" height="90" as="geometry" />
        </mxCell>
        <mxCell id="bXWaN2UdD33ZRCCEUEcj-2" value="" style="shape=module;jettyWidth=8;jettyHeight=4;" vertex="1" parent="bXWaN2UdD33ZRCCEUEcj-1">
          <mxGeometry x="1" width="20" height="20" relative="1" as="geometry">
            <mxPoint x="-27" y="7" as="offset" />
          </mxGeometry>
        </mxCell>
        <mxCell id="bXWaN2UdD33ZRCCEUEcj-3" value="«component»&lt;br&gt;&lt;b&gt;InterfazWebABC&lt;/b&gt;" style="html=1;dropTarget=0;" vertex="1" parent="1">
          <mxGeometry x="923.5" y="-1630" width="320" height="90" as="geometry" />
        </mxCell>
        <mxCell id="bXWaN2UdD33ZRCCEUEcj-4" value="" style="shape=module;jettyWidth=8;jettyHeight=4;" vertex="1" parent="bXWaN2UdD33ZRCCEUEcj-3">
          <mxGeometry x="1" width="20" height="20" relative="1" as="geometry">
            <mxPoint x="-27" y="7" as="offset" />
          </mxGeometry>
        </mxCell>
      </root>
    </mxGraphModel>
  </diagram>
</mxfile>
